<svg version="1.2" xmlns="http://www.w3.org/2000/svg" viewBox="0 0 4242 1320" width="321" height="100">
	<title>cubica-logo</title>
	<style>
		.s0 { fill: #808080 } 
	</style>
	<g id="Layer_1">
		<path fill-rule="evenodd" class="s0" d="m2281 328.5c-153-107-372.5-129.5-571.5-113 0.5 1-11.5 36.5 54.5 161.5l48.5-1.5c347-16 733.5 182-123 216.5l66.5 164c125.5 1.5 430.5 3 448 128-18.5 111.5-416 106-452.5 115.5l-60.5 161c260.5 22.5 726.5-61.5 681.5-312.5-17-95-115.5-142.5-152-177 7-7 307-170 60.5-342.5z"/>
		<path fill-rule="evenodd" class="s0" d="m3323.5 233.5c-585-174-1045.5 493-505.5 828 132.5 82 406.5 121 505.5 55l-60-151.5c-162.5 7.5-210 27-350.5-46.5-204.5-106.5-230-366 8-487 139-71 189.5-47 343-42.5z"/>
		<path fill-rule="evenodd" class="s0" d="m745.5 244.5c-239-103-739.5 58-745 436-2.5 180 121 322 233 386 179 102.5 293.5 99 519 67l-64.5-160c-127 19-257 8.5-354.5-45-78.5-43.5-164.5-129.5-161.5-248 3.5-122.5 92-197.5 171.5-238 126.5-65 196.5-55.5 346.5-42.5z"/>
		<path fill-rule="evenodd" class="s0" d="m3479 999c-0.5-148-31-211.5 41.5-345.5 130.5-240.5 388-206 488.5-6.5 61 121 58 197.5 44 348l157.5 62c121-335.5-127-748.5-448.5-743-321.5 5-546 394-438 745.5z"/>
		<path fill-rule="evenodd" class="s0" d="m1172.5 1068.5c437 0 552-553.5 456-740l-154.5 58.5c16.5 122 19 220-29.5 322.5-171 362.5-571.5 156.5-555-203.5l11.5-120-152.5-60c-73.5 128.5-8 389 50.5 495.5 58.5 107 193.5 247 373.5 247z"/>
		<path fill-rule="evenodd" class="s0" d="m2397.5 1049c17 68.5 122.5 81.5 152.5 20.5 20-41 11.5-711 6-735.5-16.5-69.5-115.5-81.5-149.5-20-23.5 42.5-15 708-9 735z"/>
	</g>
</svg>